<?xml version="1.0" encoding="UTF-8" standalone="no"?>
<svg
   xmlns:dc="http://purl.org/dc/elements/1.1/"
   xmlns:cc="http://creativecommons.org/ns#"
   xmlns:rdf="http://www.w3.org/1999/02/22-rdf-syntax-ns#"
   xmlns:svg="http://www.w3.org/2000/svg"
   xmlns="http://www.w3.org/2000/svg"
   version="1.1"
   id="svg2"
   viewBox="0 0 500.00001 565.00003"
   height="159.45557mm"
   width="141.11111mm">
  <defs
     id="defs4" />
  <metadata
     id="metadata7">
    <rdf:RDF>
      <cc:Work
         rdf:about="">
        <dc:format>image/svg+xml</dc:format>
        <dc:type
           rdf:resource="http://purl.org/dc/dcmitype/StillImage" />
        <dc:title></dc:title>
      </cc:Work>
    </rdf:RDF>
  </metadata>
  <g
     transform="translate(1634.0714,-583.57648)"
     id="layer1">
    <g
       transform="translate(-1182.8571,-145.71429)"
       id="g3358">
      <path
         id="path3360"
         d="m -215.29381,1279.3477 c -12.98745,-2.389 -23.92045,-14.5989 -23.92045,-26.7141 0,-3.0436 -1.11088,-4.195 -14.25,-14.7696 -21.53017,-17.3279 -21.74817,-17.8287 -21.75402,-49.9822 -0.004,-23.3528 -1.20204,-34.5722 -5.00563,-46.8868 -5.49719,-17.7979 -14.04955,-31.4541 -30.62599,-48.9028 -24.6202,-25.9158 -37.58792,-49.8078 -44.53505,-82.0524 -2.93209,-13.60908 -3.20095,-44.22726 -0.51356,-58.4848 11.97252,-63.51845 49.27004,-105.51905 108.94848,-122.68648 16.23101,-4.6691 25.96699,-5.96553 45.23577,-6.02355 20.88987,-0.0629 31.3568,1.50881 49.52069,7.436 54.44465,17.76622 94.95598,64.3749 105.61391,121.5098 2.76834,14.84045 2.53866,44.22731 -0.45458,58.16433 -4.84429,22.5559 -13.65817,43.0392 -25.87394,60.1306 -3.65385,5.1122 -11.94437,14.9169 -18.42338,21.7883 -16.42258,17.4171 -24.36122,30.0062 -30.21596,47.9168 -4.49687,13.7566 -5.66674,23.6602 -5.66674,47.972 0,32.2883 -0.20562,32.7619 -21.75,50.1012 -13.13912,10.5746 -14.25,11.726 -14.25,14.7696 0,9.3866 -7.83898,20.6209 -17.19808,24.647 -4.32772,1.8618 -7.4704,2.3188 -17.77943,2.5855 -6.88737,0.1782 -14.58329,-0.055 -17.10204,-0.5184 z m 33.15228,-4.3093 c 8.26313,-3.4634 15.89463,-13.8018 15.9175,-21.5634 0.0147,-4.9823 1.15156,-6.3995 12.27545,-15.3013 24.14123,-19.3188 23.03649,-16.9117 23.81247,-51.8829 0.63208,-28.4861 1.38043,-34.519 5.97302,-48.1519 5.7088,-16.9463 14.54239,-31.2366 28.16198,-45.5581 12.10765,-12.7317 17.4186,-19.1162 23.53307,-28.29 31.5562,-47.3455 33.57801,-111.31291 5.09651,-161.24633 -12.9844,-22.76408 -34.28213,-44.08112 -57.55311,-57.60526 -37.50529,-21.79655 -84.61945,-26.0291 -128.28962,-11.52502 -23.11295,7.67645 -40.19405,17.81136 -56.51875,33.53487 -12.35342,11.89847 -20.99857,23.70516 -28.07478,38.34171 -12.77104,26.41587 -18.22129,52.1351 -17.05905,80.5 1.16978,28.54863 9.65224,55.11343 24.90636,78.00003 6.21073,9.3183 11.50174,15.656 24.00161,28.75 13.94653,14.6093 21.81552,27.3934 27.73267,45.0549 4.68021,13.9695 5.99794,24.8991 6.05181,50.1951 0.0655,30.7445 0.1155,30.8627 19.66364,46.5 14.66776,11.7332 16.28914,13.5599 16.31845,18.3848 0.0628,10.3424 9.73396,21.1412 20.73086,23.1482 7.26682,1.3262 29.09845,0.484 33.31991,-1.2854 z m -35.07273,-173.2737 0,-15.526 15.25,0.276 15.25,0.2761 0.27605,15.25 0.27604,15.25 -15.52604,0 -15.52605,0 0,-15.5261 z m 1.41911,-48.7104 c 0.91812,-13.3303 2.94625,-23.7012 5.88791,-30.1078 3.4695,-7.5562 13.14728,-19.0275 23.96498,-28.4062 20.06937,-17.39975 24.74469,-24.3361 25.50601,-37.84089 0.97053,-17.21593 -6.73661,-30.5916 -21.77801,-37.79553 -6.20422,-2.97145 -7.06881,-3.11311 -19,-3.11311 -11.66264,0 -12.91763,0.1929 -18.73431,2.87952 -11.11216,5.13252 -19.88159,17.40551 -22.57913,31.59993 l -1.14416,6.02055 -14.8591,0 -14.8591,0 0.67253,-4.25 c 4.68657,-29.6168 22.05521,-49.37701 50.00327,-56.88843 11.21606,-3.01447 32.46425,-2.99797 44,0.0342 22.47281,5.9069 39.86927,21.34041 45.70273,40.54579 2.52845,8.3244 2.94215,22.18451 0.91211,30.55848 -2.89138,11.92706 -7.59359,19.58929 -18.98711,30.93944 -5.84525,5.82295 -14.13813,13.66835 -18.42862,17.43425 -9.46366,8.3064 -15.36878,15.9106 -17.33843,22.3273 -0.81021,2.6394 -1.74023,9.6365 -2.06671,15.549 l -0.59359,10.75 -13.49315,0 -13.49314,0 0.70502,-10.2364 z m -147.38448,95.9314 c -7.77343,-2.6804 -10.33502,-12.2944 -5.14102,-19.2949 3.33574,-4.4959 24.40003,-25.3215 28.0789,-27.7607 8.83561,-5.8582 21.40253,3.6342 18.09184,13.6657 -1.27045,3.8495 -30.77077,33.695 -33.3053,33.695 -0.87751,0 -2.19478,0.2002 -2.92726,0.4449 -0.73249,0.2447 -2.89121,-0.093 -4.79716,-0.75 z m 23.44264,-17.7895 c 14.47924,-14.3738 14.97728,-15.0053 14.97728,-18.9929 0,-5.3263 -3.74309,-8.9125 -9.30224,-8.9125 -3.49064,0 -4.73552,1.0069 -18.94423,15.3227 -13.33454,13.4351 -15.20808,15.7223 -15.20808,18.5657 0,1.7837 0.48543,4.1501 1.07874,5.2587 1.4051,2.6255 6.74742,4.8743 9.92126,4.1763 1.43863,-0.3164 8.85854,-6.862 17.47727,-15.418 z m 293.06612,18.0152 c -4.07592,-1.1831 -32.19414,-29.3324 -33.62218,-33.6594 -3.29685,-9.9895 9.29588,-19.4634 18.10628,-13.6219 3.67887,2.4392 24.74316,23.2648 28.0789,27.7607 7.32017,9.8662 -1.04479,22.8638 -12.563,19.5206 z m 6.90824,-3.336 c 3.94297,-1.6474 5.54837,-4.1637 5.54837,-8.6962 0,-2.8434 -1.87354,-5.1306 -15.20808,-18.5657 -14.20871,-14.3158 -15.45359,-15.3227 -18.94423,-15.3227 -5.55515,0 -9.30224,3.5867 -9.30224,8.9041 0,3.9701 0.5301,4.6473 14.92063,19.0619 8.20635,8.2201 15.84612,15.1292 16.97728,15.3536 1.13115,0.2244 2.18359,0.4693 2.33876,0.5442 0.15516,0.075 1.80644,-0.5007 3.66951,-1.2792 z M -427.88135,991.19347 c -4.99054,-1.44483 -8.33291,-6.16058 -8.33291,-11.75692 0,-2.64125 0.68378,-5.677 1.5607,-6.92899 3.31849,-4.7378 5.90541,-5.21705 28.13964,-5.21305 19.09813,0.003 21.07045,0.16883 24.10984,2.02189 3.16625,1.93042 6.18982,7.07948 6.18982,10.54112 0,3.86858 -3.41634,8.71787 -7.42414,10.53814 -3.51735,1.59752 -6.61089,1.84184 -22.57586,1.78296 -10.175,-0.0375 -19.92519,-0.48084 -21.66709,-0.98515 z m 45.85973,-5.78998 c 2.5526,-2.85879 2.93481,-3.95095 2.44968,-7 -0.33732,-2.12015 -1.64464,-4.54229 -3.16432,-5.86272 -2.51109,-2.18185 -3.23464,-2.25 -23.88774,-2.25 -21.2215,0 -21.30775,0.009 -23.94424,2.45225 -5.13407,4.7581 -2.85381,14.14213 3.85398,15.86041 1.1,0.28178 10.92533,0.43921 21.83407,0.34983 l 19.83407,-0.16249 3.0245,-3.38728 z m 363.2315,4.99217 c -4.0078,-1.82027 -7.42414,-6.66956 -7.42414,-10.53814 0,-3.46164 3.02357,-8.6107 6.18982,-10.54112 3.03939,-1.85306 5.01171,-2.01846 24.10984,-2.02189 22.23423,-0.004 24.82115,0.47525 28.13964,5.21305 0.87692,1.25199 1.5607,4.28774 1.5607,6.92899 0,5.79489 -3.36383,10.30557 -8.81428,11.81939 -2.02714,0.56302 -11.78572,1.0163 -21.68572,1.00729 -15.35993,-0.014 -18.59781,-0.2879 -22.07586,-1.86757 z m 46.99748,-4.0292 c 3.68593,-3.46568 3.65261,-10.17562 -0.0676,-13.62344 -2.63653,-2.44342 -2.72279,-2.45225 -23.94428,-2.45225 -20.6531,0 -21.37665,0.0682 -23.88774,2.25 -3.69391,3.20958 -4.33313,8.4491 -1.47421,12.08363 1.22565,1.55815 3.17879,3.23394 4.34033,3.72398 1.16153,0.49004 11.18911,0.79004 22.2835,0.66668 19.82749,-0.22046 20.2156,-0.26565 22.75,-2.6486 z M -338.21426,858.1843 c -3.04349,-1.19267 -29.56667,-27.31695 -31.56866,-31.09387 -2.67043,-5.03799 -1.86716,-9.59914 2.45101,-13.91731 4.31817,-4.31817 8.87932,-5.12144 13.91731,-2.45101 4.13042,2.18936 29.95537,28.67676 31.19225,31.99238 2.08022,5.57629 -0.82156,12.3185 -6.4516,14.99013 -3.7707,1.78931 -5.92231,1.8975 -9.54031,0.47968 z m 9.84976,-4.42056 c 3.72417,-3.13369 4.78566,-7.35061 2.80667,-11.14998 -0.80873,-1.55264 -7.76458,-9.01049 -15.45744,-16.57299 -12.8638,-12.6458 -14.28279,-13.75 -17.66993,-13.75 -5.15619,0 -9.52906,4.40091 -9.52906,9.59015 0,3.46014 1.00458,4.76388 13.25,17.19575 18.00555,18.2797 20.61672,19.72146 26.59976,14.68707 z m 254.44883,3.90289 c -5.50622,-2.71509 -8.34146,-9.45428 -6.2905,-14.95214 1.23688,-3.31562 27.06183,-29.80302 31.19225,-31.99238 5.03799,-2.67043 9.59914,-1.86716 13.91731,2.45101 4.31817,4.31817 5.12144,8.87932 2.45101,13.91731 -2.14968,4.05555 -28.64785,29.9447 -31.88376,31.15095 -3.77649,1.40777 -5.59108,1.29666 -9.38631,-0.57475 z m 9.50107,-2.79427 c 1.48519,-0.78012 8.88784,-7.67868 16.45034,-15.33011 12.74484,-12.89473 13.75,-14.18561 13.75,-17.65852 0,-5.19217 -4.37148,-9.59296 -9.52906,-9.59296 -3.38714,0 -4.80613,1.1042 -17.66993,13.75 -7.69286,7.5625 -14.64871,15.02035 -15.45744,16.57299 -1.97899,3.79937 -0.9175,8.01629 2.80667,11.14998 3.41413,2.8728 5.77453,3.14399 9.64942,1.10862 z m -142.43295,-52.49965 c -6.26383,-3.8195 -6.36671,-4.28658 -6.36671,-28.90445 l 0,-22.37749 3.4,-3.4 c 2.99487,-2.99487 4.01961,-3.4 8.6,-3.4 4.58039,0 5.60513,0.40513 8.6,3.4 l 3.4,3.4 0,22.46514 c 0,21.26757 -0.11132,22.60667 -2.0883,25.11998 -4.35303,5.53398 -10.23723,6.93333 -15.54499,3.69682 z m 12.38329,-4.63663 c 2.18421,-2.48208 2.25,-3.18517 2.25,-24.04653 0,-21.48288 -7.8e-4,-21.49047 -2.45455,-23.94424 -3.41098,-3.41098 -9.67992,-3.41098 -13.0909,0 -2.45258,2.45258 -2.45455,2.47165 -2.45455,23.7775 0,17.96626 0.25298,21.68412 1.607,23.61726 3.35248,4.78634 10.20153,5.07497 14.143,0.59601 z"
         style="fill:#97a6b2" />
    </g>
  </g>
</svg>
