<?xml version="1.0" encoding="UTF-8" standalone="no"?>
<svg
   xmlns:dc="http://purl.org/dc/elements/1.1/"
   xmlns:cc="http://creativecommons.org/ns#"
   xmlns:rdf="http://www.w3.org/1999/02/22-rdf-syntax-ns#"
   xmlns:svg="http://www.w3.org/2000/svg"
   xmlns="http://www.w3.org/2000/svg"
   version="1.1"
   id="svg2"
   viewBox="0 0 500.00001 478.00048"
   height="134.90236mm"
   width="141.11111mm">
  <defs
     id="defs4" />
  <metadata
     id="metadata7">
    <rdf:RDF>
      <cc:Work
         rdf:about="">
        <dc:format>image/svg+xml</dc:format>
        <dc:type
           rdf:resource="http://purl.org/dc/dcmitype/StillImage" />
        <dc:title></dc:title>
      </cc:Work>
    </rdf:RDF>
  </metadata>
  <g
     transform="translate(1789.7857,-586.71891)"
     id="layer1">
    <g
       transform="translate(-1394.2857,-154.28571)"
       id="g3376">
      <path
         id="path3378"
         d="m -292.74997,1211.8067 c -1.5125,-0.5326 -2.73692,-1.4933 -2.72094,-2.135 0.016,-0.6416 9.64879,-28.3916 21.40624,-61.6666 l 21.37719,-60.5 -42.15624,-0.518 c -41.05791,-0.5045 -42.30597,-0.578 -47.90291,-2.8206 -11.79087,-4.7245 -20.8237,-16.3016 -22.82964,-29.2602 -0.62491,-4.037 -0.88614,-49.6141 -0.70729,-123.40123 l 0.28359,-117 2.30375,-5.70163 c 1.26707,-3.1359 4.30457,-7.92702 6.75,-10.64693 2.44544,-2.71992 4.44625,-5.21668 4.44625,-5.54837 0,-0.33169 -4.10939,-0.60307 -9.13197,-0.60307 -7.41041,0 -9.74683,-0.38001 -12.39353,-2.01576 -9.20684,-5.69014 -8.31328,-20.2795 1.54543,-25.23269 3.24902,-1.63236 10.6669,-1.74854 111.73007,-1.75 l 108.25,-0.002 0,-11 0,-11 3.5,0 3.5,0 0,11 0,11 111.75,0.002 c 104.39532,10e-4 111.97904,0.11663 115.23007,1.75 9.85871,4.95319 10.75227,19.54255 1.54543,25.23268 -2.6467,1.63571 -4.98312,2.01572 -12.39353,2.01572 -5.02259,0 -9.13197,0.27138 -9.13197,0.60307 0,0.33169 2.00081,2.82845 4.44625,5.54837 2.44543,2.71991 5.48293,7.51103 6.75,10.64693 l 2.30375,5.70163 0.28164,117 c 0.17722,73.61898 -0.085,119.37348 -0.70729,123.40128 -2.00151,12.9555 -11.03564,24.5353 -22.82769,29.2602 -5.59694,2.2426 -6.845,2.3161 -47.90291,2.8206 l -42.15624,0.518 21.37719,60.5 c 11.75745,33.275 21.39026,61.0184 21.40624,61.6521 0.016,0.6337 -1.31815,1.6219 -2.96475,2.1959 -2.48622,0.8667 -3.1402,0.7561 -3.8572,-0.6522 -0.47486,-0.9328 -6.21514,-16.918 -12.75619,-35.5228 -6.54104,-18.6049 -12.0383,-33.1175 -12.21612,-32.25 -0.29221,1.4251 -11.66432,1.577 -118.17668,1.577 -106.90799,0 -117.88338,-0.1477 -118.17668,-1.5896 -0.17782,-0.8743 -5.72332,13.7998 -12.32332,32.6089 -6.6,18.8092 -12.45,34.7727 -13,35.4746 -0.72914,0.9303 -1.74486,1.0136 -3.75,0.3077 z m 258.25,-77.8016 0,-4 -111,0 -111,0 0,4 0,4 111,0 111,0 0,-4 z m -3.71416,-23.75 c -2.51053,-7.0125 -5.28937,-15.1117 -6.17522,-17.9981 l -1.61062,-5.2482 -99.5,0 -99.5,0 -1.61062,5.2482 c -0.88585,2.8864 -3.66469,10.9856 -6.17522,17.9981 l -4.56458,12.75 111.85042,0 111.85042,0 -4.56458,-12.75 z m 87.83656,-32.8874 c 6.63474,-3.0678 12.39668,-8.6835 15.59782,-15.2021 l 2.77978,-5.6605 0,-120.50003 0,-120.5 -2.35756,-5.21376 C 63.00735,804.4637 55.30766,796.65829 50.01098,794.4452 c -5.18992,-2.16849 -385.83198,-2.16849 -391.0219,0 -5.29667,2.21309 -12.99637,10.0185 -15.63149,15.84611 l -2.35756,5.21376 0,120.5 c 0,120.40793 0.002,120.50353 2.10566,125.05083 4.08439,8.8273 11.42203,15.1732 20.3449,17.595 3.54621,0.9625 46.11701,1.1929 193.04944,1.0445 l 188.5,-0.1903 4.6224,-2.1374 z m -268.88094,-112.11263 0.25854,-54.75 7.25,-0.29381 7.25,-0.29381 0,55.04381 0,55.04384 -7.50854,0 -7.50854,0 0.25854,-54.75003 z m 36.75854,-22.25 0,-77 7.5,0 7.5,0 0,77 0,77.00003 -7.5,0 -7.5,0 0,-77.00003 z m 37,0 0,-77 7.5,0 7.5,0 0,77 0,77.00003 -7.5,0 -7.5,0 0,-77.00003 z m 37,43.95619 0,-33.04381 7.25,0.29381 7.25,0.29381 0.26366,32.75 0.26367,32.75003 -7.51367,0 -7.51366,0 0,-33.04384 z m 29.24243,-29.20619 0.25757,-62.25 7.25,-0.29381 7.25,-0.29381 0,62.54381 0,62.54384 -7.50757,0 -7.50757,0 0.25757,-62.25003 z m 159.75757,-174.75 c 2.97766,-2.97766 2.66668,-8.33043 -0.63486,-10.92742 l -2.63486,-2.07258 -222.73028,0 -222.73028,0 -2.63486,2.07258 c -3.30154,2.59699 -3.61252,7.94976 -0.63486,10.92742 1.98809,1.9881 3.33333,2 226,2 222.66667,0 224.0119,-0.0119 226,-2 z"
         style="fill:#97a6b2" />
    </g>
  </g>
</svg>
