<?xml version="1.0" encoding="UTF-8" standalone="no"?>
<!-- Created with Inkscape (http://www.inkscape.org/) -->

<svg
   xmlns:dc="http://purl.org/dc/elements/1.1/"
   xmlns:cc="http://creativecommons.org/ns#"
   xmlns:rdf="http://www.w3.org/1999/02/22-rdf-syntax-ns#"
   xmlns:svg="http://www.w3.org/2000/svg"
   xmlns="http://www.w3.org/2000/svg"
   xmlns:sodipodi="http://sodipodi.sourceforge.net/DTD/sodipodi-0.dtd"
   xmlns:inkscape="http://www.inkscape.org/namespaces/inkscape"
   width="141.11652mm"
   height="138.85332mm"
   viewBox="0 0 500.01915 491.99994"
   id="svg2"
   version="1.1"
   inkscape:version="0.91 r13725"
   sodipodi:docname="vacancies.svg">
  <defs
     id="defs4" />
  <sodipodi:namedview
     id="base"
     bordercolor="#666666"
     borderopacity="1.0"
     inkscape:pageopacity="0.0"
     inkscape:pageshadow="2"
     inkscape:zoom="0.35"
     inkscape:cx="922.00001"
     inkscape:cy="600.6429"
     inkscape:document-units="px"
     inkscape:current-layer="layer1"
     showgrid="false"
     fit-margin-top="0"
     fit-margin-left="0"
     fit-margin-right="0"
     fit-margin-bottom="0"
     inkscape:window-width="1920"
     inkscape:window-height="1020"
     inkscape:window-x="-8"
     inkscape:window-y="-8"
     inkscape:window-maximized="1" />
  <metadata
     id="metadata7">
    <rdf:RDF>
      <cc:Work
         rdf:about="">
        <dc:format>image/svg+xml</dc:format>
        <dc:type
           rdf:resource="http://purl.org/dc/dcmitype/StillImage" />
        <dc:title></dc:title>
      </cc:Work>
    </rdf:RDF>
  </metadata>
  <g
     inkscape:label="Layer 1"
     inkscape:groupmode="layer"
     id="layer1"
     transform="translate(1451.2143,-724.4337)">
    <g
       id="g3395"
       transform="translate(-1111.4286,-28.571429)">
      <path
         style="fill:#97a6b2"
         d="m 67.21429,1228.1121 c 0,-1.0411 0.7118,-2.1661 1.58179,-2.5 0.86998,-0.3338 16.50748,-0.6168 34.75,-0.6289 31.18888,-0.021 33.43675,-0.1434 37.66821,-2.0566 5.50855,-2.4906 10.46391,-7.1056 13.33763,-12.4215 l 2.16237,-4 0,-182.5 0,-182.49997 -2.16237,-4 c -4.8959,-9.05654 -13.79957,-14.45608 -23.83763,-14.45608 -10.11181,0 -19.35099,6.01297 -23.59359,15.35496 -1.79286,3.94781 -1.86331,10.42486 -1.88445,173.26929 -0.0121,93.0426 -0.2951,169.8801 -0.62895,170.75 -0.33384,0.87 -1.46388,1.5818 -2.51119,1.5818 -1.8659,0 -1.89894,-3.4639 -1.64301,-172.25 l 0.26119,-172.24997 2.9464,-5.31885 c 1.62052,-2.92537 4.43497,-6.62583 6.25432,-8.22324 l 3.30792,-2.90439 -14.75432,-0.27676 c -13.9954,-0.26252 -14.75432,-0.37963 -14.75432,-2.27676 0,-1.95238 0.66667,-2 28,-2 27.59631,0 28.07087,0.0349 32.91538,2.41926 5.64557,2.77866 11.63515,8.56012 13.97363,13.48808 1.4634,3.08389 1.61099,20.45347 1.61099,189.59263 0,209.461 0.78837,189.3678 -7.75647,197.689 -8.17655,7.9626 -10.28437,8.311 -50.28104,8.311 -33.63716,0 -34.96249,-0.072 -34.96249,-1.893 z m -357.26553,-6.195 c -9.86877,-2.3251 -19.15788,-9.964 -23.94772,-19.6936 l -3.28675,-6.6763 0,-196.54207 0,-196.54206 3.28675,-6.67633 c 3.81115,-7.74154 10.05558,-13.80025 18.21325,-17.67154 l 5.5,-2.61007 154.5,0 154.5,0 5.71807,2.68006 c 7.55332,3.54024 14.74673,10.41474 18.35617,17.54238 l 2.92576,5.77756 0.5,191 0.5,190.99997 2.38501,5.9188 c 7.00303,17.3793 24.50193,25.8346 57.61499,27.8391 3.25262,0.1969 4,0.6158 4,2.2421 0,1.7672 -0.8731,2.0721 -7.5,2.6193 -11.91343,0.9838 -389.05399,0.7849 -393.26553,-0.2073 z m 358.4301,-7.0758 c -14.15002,-5.9797 -23.82235,-18.1347 -26.12943,-32.8362 -0.66608,-4.2445 -1.02265,-70.7199 -1.02759,-191.57183 -0.008,-207.90585 0.68228,-190.10785 -7.74198,-199.47766 -2.5027,-2.78361 -6.84879,-6.27372 -9.65797,-7.75579 l -5.1076,-2.69469 -154,0 -154,0 -5.66054,2.77978 c -6.51856,3.20114 -12.13433,8.96307 -15.20213,15.59782 l -2.13733,4.6224 -0.26004,193.45954 c -0.28539,212.31673 -0.64756,199.03633 5.66548,207.75123 3.91543,5.4051 9.10653,9.254 15.42701,11.4382 4.88677,1.6887 15.00218,1.7858 186.16755,1.7865 l 181,7e-4 -7.33543,-3.1 z m -332.66457,-35.4056 c -4.35771,-2.2617 -8.54459,-6.4591 -10.12316,-10.1484 -1.12115,-2.6203 -1.37276,-14.8772 -1.35488,-66 0.0207,-59.1562 0.12992,-63.0199 1.89116,-66.8983 2.0446,-4.5023 6.68872,-8.4721 11.9861,-10.2458 4.52268,-1.5142 96.95262,-1.5846 102.37811,-0.078 4.41262,1.2254 10.10682,5.926 12.52375,10.3383 1.54822,2.8265 1.69892,8.7411 1.69892,66.6798 l 0,63.5781 -3,4.8442 c -1.97045,3.1818 -4.5125,5.643 -7.40728,7.1719 l -4.40729,2.3276 -50.59271,-0.01 c -43.83629,-0.01 -50.99336,-0.2142 -53.59272,-1.5634 z m 107.67477,-5.9034 c 7.04745,-4.7888 6.92999,-3.5058 6.6101,-72.2046 -0.2794,-60.0027 -0.32446,-61.2305 -2.34666,-63.9382 -1.13398,-1.5184 -3.30408,-3.6886 -4.82243,-4.8226 -2.68981,-2.0089 -4.03528,-2.0685 -52.43821,-2.3249 -55.46115,-0.2938 -54.16347,-0.4406 -58.90764,6.661 l -2.26993,3.3979 0,63.3173 0,63.3173 3.19533,3.6393 c 1.75743,2.0016 4.11993,4.0138 5.25,4.4714 1.13007,0.4577 24.56271,0.8607 52.07254,0.8955 l 50.01786,0.063 3.63904,-2.4727 z m 66.27978,-2.9817 c -3.08088,-3.0809 -3.13289,-6.5596 -0.1401,-9.3712 2.26125,-2.1243 2.95091,-2.1743 30,-2.1743 26.35222,0 27.78187,0.096 29.68555,2 2.87752,2.8776 2.58884,7.3917 -0.63486,9.9275 -2.51736,1.9801 -3.83492,2.0725 -29.54545,2.0725 l -26.9106,0 -2.45454,-2.4545 z m 56.35552,-4.7955 c 0.31372,-1.6311 -1.46445,-1.75 -26.17773,-1.75 -16.59751,0 -26.74546,0.3741 -27.13234,1 -1.67399,2.7086 1.39444,3.0253 26.80594,2.7665 24.00375,-0.2444 26.19537,-0.4112 26.50413,-2.0165 z m -56.35552,-70.2045 c -2.9882,-2.9882 -3.14113,-6.4314 -0.41559,-9.3569 l 2.03895,-2.1886 48.92209,0 48.92209,0 2.03895,2.1886 c 2.72554,2.9255 2.57261,6.3687 -0.41559,9.3569 l -2.45454,2.4545 -48.09091,0 -48.09091,0 -2.45454,-2.4545 z m 98.35523,-4.7955 c 0.31705,-1.647 -2.49067,-1.75 -47.73646,-1.75 -39.39443,0 -48.07332,0.2407 -48.07332,1.3334 0,0.7333 0.30436,1.6377 0.67635,2.0096 0.37199,0.372 21.85339,0.5595 47.73645,0.4167 43.90522,-0.2423 47.08269,-0.377 47.39698,-2.0097 z m -95.90839,-51.8618 c -5.7174,-2.0988 -6.26375,-9.8806 -0.88478,-12.6022 1.8876,-0.955 13.63915,-1.2565 48.98339,-1.2565 35.34424,0 47.09579,0.3015 48.98339,1.2565 5.57757,2.8221 4.79923,10.5484 -1.27599,12.6662 -3.86136,1.3461 -92.1254,1.2871 -95.80601,-0.064 z m 94.99433,-4.8026 c 0.76764,-0.486 1.11926,-1.6041 0.78138,-2.4847 -0.55124,-1.4365 -5.44739,-1.6009 -47.6771,-1.6009 -42.22971,0 -47.12586,0.1644 -47.6771,1.6009 -0.33788,0.8806 0.0137,1.9987 0.78138,2.4847 1.82321,1.1545 91.96823,1.1545 93.79144,0 z m -277.63692,-44.77504 c -5.35811,-1.06944 -7.01259,-8.78584 -2.62394,-12.23795 2.59835,-2.04387 3.45663,-2.07258 61.95295,-2.07258 41.34318,0 60.05649,0.33644 61.75487,1.11027 3.16354,1.44141 4.87542,5.18588 3.73825,8.17686 -2.05181,5.39669 0.25307,5.20275 -63.48391,5.3418 -32.50336,0.0709 -60.10556,-0.0724 -61.33822,-0.3184 z m 119.46306,-5.43239 c 0.61702,-0.61702 0.88387,-1.74202 0.59301,-2.5 -0.4411,-1.14946 -10.38929,-1.37814 -59.95324,-1.37814 -53.56418,0 -59.48498,0.15788 -60.03873,1.60092 -0.33789,0.88051 0.0137,1.99862 0.78138,2.48469 2.16426,1.3704 117.24098,1.16913 118.61758,-0.20747 z m 63.36886,5.03178 c -5.38147,-2.15169 -6.60838,-7.48317 -2.63617,-11.45537 l 2.45454,-2.45455 48.09091,0 48.09091,0 2.45454,2.45455 c 4.08066,4.08065 2.73378,9.34819 -2.94204,11.50614 -3.55129,1.35019 -92.12657,1.30311 -95.51269,-0.0508 z m 94.805,-4.82431 c 0.76764,-0.48607 1.11926,-1.60418 0.78138,-2.48469 -0.55124,-1.43651 -5.44739,-1.60092 -47.6771,-1.60092 -42.22971,0 -47.12586,0.16441 -47.6771,1.60092 -0.33788,0.88051 0.0137,1.99862 0.78138,2.48469 1.82321,1.15445 91.96823,1.15445 93.79144,0 z m -288.70322,-43.33561 0.3075,-4.25 149.75,-0.25326 149.75,-0.25325 0,4.50325 0,4.50326 -150.0575,0 -150.0575,0 0.3075,-4.25 z m 0,-25 0.3075,-4.25 149.75,-0.25326 149.75,-0.25325 0,4.50325 0,4.50326 -150.0575,0 -150.0575,0 0.3075,-4.25 z m 17.81464,-36.34298 c -4.57557,-1.98423 -7.74884,-5.02367 -10.16545,-9.73675 -1.7801,-3.47169 -1.93461,-5.54525 -1.65269,-22.18012 0.34659,-20.45032 0.39138,-20.5971 8.21838,-26.93227 l 3.77796,-3.05788 129.65733,-0.29573 c 91.4893,-0.20867 130.76612,0.0254 133.42391,0.79511 5.18247,1.50089 10.28218,6.25219 12.25488,11.41764 1.35811,3.55616 1.59156,7.35031 1.31491,21.37029 l -0.33637,17.04646 -3,4.25634 c -1.65,2.34099 -4.98328,5.30339 -7.40728,6.58312 l -4.40729,2.32677 -129.09271,-0.0391 c -113.04335,-0.0343 -129.52697,-0.22746 -132.58558,-1.55384 z M 1.31641,873.7352 C 7.35398,869.70183 8.21146,866.56306 8.209,848.50513 8.207,830.60802 7.41748,827.93491 0.97343,823.99339 -2.2439,822.0255 -3.95743,822.00317 -132.60758,822.25253 l -130.32187,0.2526 -3.92813,4.21128 -3.92813,4.21127 0.004,17.28873 c 0.004,19.32311 0.70178,21.80948 7.23712,25.79412 3.20758,1.95569 5.30152,1.98718 132.36126,1.99086 l 129.102112,0.004 3.39789,-2.26993 z"
         id="path3397"
         inkscape:connector-curvature="0" />
    </g>
  </g>
</svg>
