<?xml version="1.0" encoding="UTF-8" standalone="no"?>
<svg
   xmlns:dc="http://purl.org/dc/elements/1.1/"
   xmlns:cc="http://creativecommons.org/ns#"
   xmlns:rdf="http://www.w3.org/1999/02/22-rdf-syntax-ns#"
   xmlns:svg="http://www.w3.org/2000/svg"
   xmlns="http://www.w3.org/2000/svg"
   version="1.1"
   id="svg2"
   viewBox="0 0 337.02459 336.99999"
   height="95.108887mm"
   width="95.115829mm">
  <defs
     id="defs4" />
  <metadata
     id="metadata7">
    <rdf:RDF>
      <cc:Work
         rdf:about="">
        <dc:format>image/svg+xml</dc:format>
        <dc:type
           rdf:resource="http://purl.org/dc/dcmitype/StillImage" />
        <dc:title></dc:title>
      </cc:Work>
    </rdf:RDF>
  </metadata>
  <g
     transform="translate(-277.21437,-466.71935)"
     id="layer1">
    <g
       transform="translate(-748.57143,22.857143)"
       id="g3347">
      <path
         id="path3351"
         d="m 1025.7858,612.36221 0,-168.5 168.5,0 168.5,0 0,168.5 0,168.5 -168.5,0 -168.5,0 0,-168.5 z"
         style="fill:#fefefe" />
      <path
         id="path3349"
         d="m 1304.2744,734.85085 c -25.2892,-25.29375 -46.3142,-45.98864 -46.7221,-45.98864 -0.4079,0 -4.6589,2.89657 -9.4467,6.43683 -16.1218,11.92106 -35.065,20.33903 -55.6314,24.72139 -14.5413,3.0985 -39.957,3.12549 -54.1884,0.0575 -13.5459,-2.92013 -21.134,-5.48201 -33.2188,-11.2152 -24.7817,-11.75674 -45.9461,-31.04556 -59.8284,-54.52653 -24.8704,-42.06651 -25.7735,-95.23394 -2.3436,-137.97399 19.6049,-35.76274 54.1516,-61.3351 93.9341,-69.53256 62.9434,-12.96992 126.5598,18.56355 153.9572,76.31375 5.7332,12.08484 8.2951,19.67294 11.2153,33.21881 3.0679,14.23136 3.0409,39.64714 -0.058,54.18841 -4.3824,20.56636 -12.8004,39.50962 -24.7214,55.63143 -3.5403,4.78777 -6.4369,9.03515 -6.4369,9.43861 0,0.40346 20.7057,21.44279 46.0125,46.75406 l 46.0126,46.02048 -6.278,6.22214 -6.2779,6.22214 -45.9805,-45.98863 z m -125.9886,-30.02392 c 28.3278,-3.20693 52.6915,-15.00605 73.0751,-35.38966 20.6465,-20.64657 32.227,-44.78552 35.4836,-73.96431 2.3753,-21.28159 -2.2192,-47.03329 -11.7951,-66.11075 -11.1326,-22.17856 -31.6412,-43.22257 -52.8001,-54.17839 -35.5555,-18.41025 -75.6703,-18.89068 -110.9635,-1.32894 -25.5093,12.69333 -42.814,29.99799 -55.5073,55.50733 -12.1381,24.3934 -15.838,51.96821 -10.4639,77.98579 12.8253,62.0913 70.7121,104.52714 132.9712,97.47893 z"
         style="fill:#cdd1d3" />
    </g>
  </g>
</svg>
